# xmcd
#
# Track frame offsets: 
#        182
#        11562
#        25230
#        39520
#        50880
#        65417
#        77840
#        93302
#        108492
#        123035
#        139120
#        156045
#        170980
#        183565
#        194415
#        206512
#        219490
#        238680
#        248412
#        265335
#        282210
#        296457
#
# Disc length: 4128 seconds
#
# Revision: 2
# Processed by: cddbd v1.5.2PL0 Copyright (c) Steve Scherf et al.
# Submitted via: ExactAudioCopy v0.99pb5
#
DISCID=41101e16
DTITLE=American Roots [CD 2 - 2)
DYEAR=1992
DGENRE=country
TTITLE0=On The Road Again
TTITLE1=It Ain't Me Baby
TTITLE2=Eagle When She Flies
TTITLE3=The Battle Of New Orleans
TTITLE4=I Married Her Just Because She Looks Like You
TTITLE5=Panama Red
TTITLE6=Rockin' Years
TTITLE7=Down At The Twist And Shout
TTITLE8=Willie, Waylon And Me
TTITLE9=(Ghost) Riders In The Sky
TTITLE10=This Land Is Your Land
TTITLE11=On The Inside
TTITLE12=Chains Of Gold
TTITLE13=UnclePenn
TTITLE14=The Most Beautiful Girl
TTITLE15=The Bird
TTITLE16=Ode To Billy Joe
TTITLE17=Snowbird
TTITLE18=Country Boy
TTITLE19=Stay (Don't Be Cruel)
TTITLE20=Tennesse Flat Top Box
TTITLE21=The Jamestown Ferry
EXTD=
EXTT0=
EXTT1=
EXTT2=
EXTT3=
EXTT4=
EXTT5=
EXTT6=
EXTT7=
EXTT8=
EXTT9=
EXTT10=
EXTT11=
EXTT12=
EXTT13=
EXTT14=
EXTT15=
EXTT16=
EXTT17=
EXTT18=
EXTT19=
EXTT20=
EXTT21=
PLAYORDER=
